<?xml version="1.0" encoding="UTF-8"?>
<svg xmlns="http://www.w3.org/2000/svg" xmlns:xlink="http://www.w3.org/1999/xlink" width="606.35pt" height="168.65pt" viewBox="0 0 606.35 168.65" version="1.1">
<g id="surface1">
<path style=" stroke:none;fill-rule:evenodd;fill:rgb(39.607239%,57.647705%,76.863098%);fill-opacity:1;" d="M 0 134.882812 L 0 149.308594 L 38.714844 149.308594 L 45.871094 134.882812 L 0 134.882812 "/>
<path style=" stroke:none;fill-rule:evenodd;fill:rgb(39.607239%,57.647705%,76.863098%);fill-opacity:1;" d="M 0 117.785156 L 0 132.203125 L 47.195312 132.203125 L 54.359375 117.785156 L 0 117.785156 "/>
<path style=" stroke:none;fill-rule:evenodd;fill:rgb(39.607239%,57.647705%,76.863098%);fill-opacity:1;" d="M 0 100.675781 L 0 115.109375 L 55.695312 115.109375 L 62.859375 100.675781 L 0 100.675781 "/>
<path style=" stroke:none;fill-rule:evenodd;fill:rgb(39.607239%,57.647705%,76.863098%);fill-opacity:1;" d="M 0 83.574219 L 0 98.007812 L 64.183594 98.007812 L 71.347656 83.574219 L 0 83.574219 "/>
<path style=" stroke:none;fill-rule:evenodd;fill:rgb(39.607239%,57.647705%,76.863098%);fill-opacity:1;" d="M 0 66.46875 L 0 80.902344 L 72.675781 80.902344 L 79.839844 66.46875 L 0 66.46875 "/>
<path style=" stroke:none;fill-rule:evenodd;fill:rgb(39.607239%,57.647705%,76.863098%);fill-opacity:1;" d="M 0 49.371094 L 0 63.800781 L 81.160156 63.800781 L 88.324219 49.371094 L 0 49.371094 "/>
<path style=" stroke:none;fill-rule:nonzero;fill:rgb(39.607239%,57.647705%,76.863098%);fill-opacity:1;" d="M 0 32.273438 L 0 46.695312 L 89.648438 46.695312 L 96.816406 32.273438 L 0 32.273438 "/>
<path style=" stroke:none;fill-rule:nonzero;fill:rgb(39.607239%,57.647705%,76.863098%);fill-opacity:1;" d="M 0 15.167969 L 0 29.59375 L 98.144531 29.59375 L 105.304688 15.167969 L 0 15.167969 "/>
<path style=" stroke:none;fill-rule:evenodd;fill:rgb(7.058716%,23.921204%,48.234558%);fill-opacity:1;" d="M 112.84375 -0.00390625 L 29.109375 168.648438 L 140.152344 168.648438 L 140.152344 -0.00390625 L 112.84375 -0.00390625 "/>
<path style=" stroke:none;fill-rule:nonzero;fill:rgb(100%,100%,100%);fill-opacity:1;" d="M 39.78125 63.800781 L 94.417969 63.800781 L 94.429688 128.265625 L 39.796875 128.265625 L 39.796875 64.132812 L 39.78125 63.800781 "/>
<path style=" stroke:none;fill-rule:nonzero;fill:rgb(100%,100%,100%);fill-opacity:1;" d="M 30.421875 48.789062 C 30.398438 44.070312 46.824219 40.363281 67.128906 40.050781 C 87.332031 40.363281 103.742188 44.070312 103.835938 48.789062 C 103.742188 53.210938 87.332031 56.925781 67.128906 56.902344 C 46.824219 56.925781 30.398438 53.210938 30.421875 48.789062 "/>
<path style=" stroke:none;fill-rule:nonzero;fill:rgb(7.058716%,23.921204%,48.234558%);fill-opacity:1;" d="M 174.574219 30.46875 L 174.574219 20.882812 L 182.949219 20.882812 L 182.949219 30.46875 Z M 174.574219 89.226562 L 174.574219 39.683594 L 182.949219 39.683594 L 182.949219 89.226562 L 174.574219 89.226562 "/>
<path style=" stroke:none;fill-rule:nonzero;fill:rgb(7.058716%,23.921204%,48.234558%);fill-opacity:1;" d="M 197.003906 89.226562 L 197.003906 39.683594 L 204.472656 39.683594 L 204.472656 46.722656 C 208.152344 41.308594 213.484375 38.601562 220.441406 38.601562 C 223.464844 38.601562 226.242188 39.140625 228.789062 40.21875 C 231.328125 41.285156 233.222656 42.6875 234.480469 44.433594 C 235.742188 46.171875 236.628906 48.238281 237.136719 50.632812 C 237.445312 52.183594 237.605469 54.894531 237.605469 58.785156 L 237.605469 89.226562 L 228.867188 89.226562 L 228.867188 59.085938 C 228.867188 55.664062 228.535156 53.105469 227.882812 51.410156 C 227.226562 49.710938 226.074219 48.363281 224.40625 47.355469 C 222.738281 46.34375 220.785156 45.832031 218.539062 45.832031 C 214.964844 45.832031 211.871094 46.972656 209.277344 49.238281 C 206.667969 51.511719 205.375 55.820312 205.375 62.160156 L 205.375 89.226562 L 197.003906 89.226562 "/>
<path style=" stroke:none;fill-rule:nonzero;fill:rgb(7.058716%,23.921204%,48.234558%);fill-opacity:1;" d="M 270.289062 81.699219 L 271.386719 89.125 C 268.984375 89.628906 266.851562 89.886719 264.972656 89.886719 C 261.886719 89.886719 259.488281 89.398438 257.796875 88.433594 C 256.105469 87.46875 254.90625 86.207031 254.210938 84.628906 C 253.515625 83.054688 253.175781 79.742188 253.175781 74.695312 L 253.175781 46.128906 L 246.980469 46.128906 L 246.980469 39.621094 L 253.175781 39.621094 L 253.175781 27.371094 L 261.550781 22.328125 L 261.550781 39.621094 L 270.289062 39.621094 L 270.289062 46.128906 L 261.550781 46.128906 L 261.550781 74.933594 C 261.550781 77.320312 261.699219 78.84375 262.003906 79.519531 C 262.3125 80.207031 262.8125 80.75 263.507812 81.152344 C 264.199219 81.550781 265.183594 81.757812 266.472656 81.757812 C 267.4375 81.757812 268.707031 81.734375 270.289062 81.699219 "/>
<path style=" stroke:none;fill-rule:nonzero;fill:rgb(7.058716%,23.921204%,48.234558%);fill-opacity:1;" d="M 314 73.320312 L 322.558594 74.40625 C 321.175781 79.441406 318.617188 83.359375 314.878906 86.136719 C 311.152344 88.921875 306.390625 90.3125 300.589844 90.3125 C 293.265625 90.3125 287.472656 88.085938 283.1875 83.628906 C 278.910156 79.167969 276.761719 72.917969 276.761719 64.878906 C 276.761719 56.550781 278.929688 50.09375 283.253906 45.496094 C 287.59375 40.90625 293.199219 38.601562 300.105469 38.601562 C 306.785156 38.601562 312.238281 40.855469 316.480469 45.367188 C 320.714844 49.867188 322.828125 56.214844 322.828125 64.390625 C 322.828125 64.886719 322.824219 65.632812 322.785156 66.621094 L 285.5 66.621094 C 285.820312 72.0625 287.386719 76.21875 290.191406 79.109375 C 293.007812 81.992188 296.519531 83.445312 300.71875 83.445312 C 303.851562 83.445312 306.511719 82.636719 308.730469 81.027344 C 310.945312 79.414062 312.699219 76.855469 314 73.320312 Z M 285.6875 59.757812 L 314.09375 59.757812 C 313.707031 55.574219 312.621094 52.4375 310.828125 50.347656 C 308.089844 47.097656 304.519531 45.464844 300.160156 45.464844 C 296.199219 45.464844 292.855469 46.769531 290.164062 49.359375 C 287.46875 51.953125 285.976562 55.410156 285.6875 59.757812 "/>
<path style=" stroke:none;fill-rule:nonzero;fill:rgb(7.058716%,23.921204%,48.234558%);fill-opacity:1;" d="M 334.210938 89.226562 L 342.582031 89.226562 L 342.582031 20.882812 L 334.210938 20.882812 Z M 334.210938 89.226562 "/>
<path style=" stroke:none;fill-rule:nonzero;fill:rgb(7.058716%,23.921204%,48.234558%);fill-opacity:1;" d="M 356.8125 89.226562 L 365.199219 89.226562 L 365.199219 20.882812 L 356.8125 20.882812 Z M 356.8125 89.226562 "/>
<path style=" stroke:none;fill-rule:nonzero;fill:rgb(7.058716%,23.921204%,48.234558%);fill-opacity:1;" d="M 379.800781 30.46875 L 379.800781 20.882812 L 388.167969 20.882812 L 388.167969 30.46875 Z M 379.800781 89.226562 L 379.800781 39.683594 L 388.167969 39.683594 L 388.167969 89.226562 L 379.800781 89.226562 "/>
<path style=" stroke:none;fill-rule:nonzero;fill:rgb(7.058716%,23.921204%,48.234558%);fill-opacity:1;" d="M 411.386719 89.226562 L 396.03125 39.683594 L 404.78125 39.683594 L 412.855469 68.257812 L 415.699219 78.925781 C 415.8125 78.390625 416.703125 75.003906 418.355469 68.75 L 426.210938 39.683594 L 434.886719 39.683594 L 442.265625 68.445312 L 444.644531 77.894531 L 447.535156 68.300781 L 456.269531 39.683594 L 464.496094 39.683594 L 448.554688 89.226562 L 439.960938 89.226562 L 432.207031 59.5625 L 430.261719 51.113281 L 420.054688 89.226562 L 411.386719 89.226562 "/>
<path style=" stroke:none;fill-rule:nonzero;fill:rgb(7.058716%,23.921204%,48.234558%);fill-opacity:1;" d="M 505.855469 83.074219 C 502.746094 85.722656 499.722656 87.59375 496.777344 88.683594 C 493.832031 89.757812 490.675781 90.3125 487.308594 90.3125 C 481.742188 90.3125 477.464844 88.988281 474.46875 86.332031 C 471.46875 83.667969 469.984375 80.28125 469.984375 76.136719 C 469.984375 73.710938 470.546875 71.503906 471.683594 69.496094 C 472.804688 67.484375 474.289062 65.878906 476.117188 64.675781 C 477.949219 63.460938 480.007812 62.542969 482.296875 61.914062 C 483.988281 61.480469 486.535156 61.066406 489.933594 60.65625 C 496.875 59.847656 501.972656 58.886719 505.253906 57.765625 C 505.289062 56.609375 505.304688 55.878906 505.304688 55.574219 C 505.304688 52.144531 504.492188 49.726562 502.871094 48.328125 C 500.664062 46.429688 497.394531 45.464844 493.078125 45.464844 C 489.015625 45.464844 486.019531 46.160156 484.097656 47.546875 C 482.164062 48.925781 480.734375 51.371094 479.820312 54.871094 L 471.4375 53.796875 C 472.195312 50.285156 473.449219 47.46875 475.195312 45.316406 C 476.9375 43.160156 479.441406 41.507812 482.734375 40.34375 C 486.019531 39.1875 489.835938 38.601562 494.171875 38.601562 C 498.472656 38.601562 501.972656 39.105469 504.65625 40.089844 C 507.355469 41.074219 509.324219 42.324219 510.589844 43.820312 C 511.863281 45.324219 512.75 47.21875 513.257812 49.5 C 513.539062 50.929688 513.675781 53.507812 513.675781 57.242188 L 513.675781 68.464844 C 513.675781 76.289062 513.84375 81.238281 514.203125 83.296875 C 514.539062 85.347656 515.21875 87.335938 516.230469 89.226562 L 507.488281 89.226562 C 506.640625 87.476562 506.09375 85.429688 505.855469 83.074219 Z M 505.304688 64.273438 C 502.179688 65.53125 497.476562 66.585938 491.21875 67.476562 C 487.660156 67.96875 485.152344 68.53125 483.6875 69.160156 C 482.226562 69.78125 481.078125 70.695312 480.289062 71.90625 C 479.484375 73.109375 479.085938 74.445312 479.085938 75.917969 C 479.085938 78.175781 479.953125 80.046875 481.691406 81.550781 C 483.433594 83.054688 485.976562 83.800781 489.328125 83.800781 C 492.636719 83.800781 495.59375 83.09375 498.179688 81.675781 C 500.753906 80.257812 502.660156 78.300781 503.871094 75.832031 C 504.796875 73.914062 505.253906 71.105469 505.253906 67.371094 L 505.304688 64.273438 "/>
<path style=" stroke:none;fill-rule:nonzero;fill:rgb(7.058716%,23.921204%,48.234558%);fill-opacity:1;" d="M 527.429688 89.226562 L 527.429688 39.683594 L 534.886719 39.683594 L 534.886719 47.234375 C 536.835938 43.71875 538.625 41.402344 540.269531 40.28125 C 541.917969 39.160156 543.71875 38.601562 545.691406 38.601562 C 548.535156 38.601562 551.429688 39.496094 554.382812 41.277344 L 551.40625 48.960938 C 549.367188 47.839844 547.320312 47.273438 545.277344 47.273438 C 543.453125 47.273438 541.804688 47.835938 540.359375 48.933594 C 538.894531 50.035156 537.851562 51.566406 537.222656 53.523438 C 536.277344 56.507812 535.804688 59.777344 535.804688 63.316406 L 535.804688 89.226562 L 527.429688 89.226562 "/>
<path style=" stroke:none;fill-rule:nonzero;fill:rgb(7.058716%,23.921204%,48.234558%);fill-opacity:1;" d="M 595.191406 73.320312 L 603.753906 74.40625 C 602.375 79.441406 599.804688 83.359375 596.078125 86.136719 C 592.355469 88.921875 587.589844 90.3125 581.769531 90.3125 C 574.460938 90.3125 568.679688 88.085938 564.386719 83.628906 C 560.101562 79.167969 557.972656 72.917969 557.972656 64.878906 C 557.972656 56.550781 560.136719 50.09375 564.457031 45.496094 C 568.789062 40.90625 574.402344 38.601562 581.304688 38.601562 C 587.988281 38.601562 593.445312 40.855469 597.679688 45.367188 C 601.914062 49.867188 604.019531 56.214844 604.019531 64.390625 C 604.019531 64.886719 604.007812 65.632812 603.988281 66.621094 L 566.695312 66.621094 C 567.019531 72.0625 568.589844 76.21875 571.398438 79.109375 C 574.199219 81.992188 577.722656 83.445312 581.925781 83.445312 C 585.050781 83.445312 587.714844 82.636719 589.925781 81.027344 C 592.148438 79.414062 593.902344 76.855469 595.191406 73.320312 Z M 566.898438 59.757812 L 595.289062 59.757812 C 594.90625 55.574219 593.824219 52.4375 592.035156 50.347656 C 589.285156 47.097656 585.71875 45.464844 581.351562 45.464844 C 577.394531 45.464844 574.0625 46.769531 571.367188 49.359375 C 568.679688 51.953125 567.175781 55.410156 566.898438 59.757812 "/>
<path style=" stroke:none;fill-rule:nonzero;fill:rgb(7.058716%,23.921204%,48.234558%);fill-opacity:1;" d="M 170.785156 123.9375 L 174.304688 123.375 C 174.511719 124.789062 175.0625 125.867188 175.960938 126.617188 C 176.871094 127.363281 178.128906 127.746094 179.753906 127.746094 C 181.382812 127.746094 182.59375 127.417969 183.394531 126.746094 C 184.179688 126.078125 184.578125 125.292969 184.578125 124.402344 C 184.578125 123.601562 184.222656 122.960938 183.53125 122.5 C 183.042969 122.183594 181.828125 121.789062 179.886719 121.300781 C 177.277344 120.640625 175.46875 120.070312 174.460938 119.589844 C 173.453125 119.105469 172.683594 118.445312 172.160156 117.585938 C 171.640625 116.734375 171.386719 115.796875 171.386719 114.773438 C 171.386719 113.832031 171.597656 112.972656 172.03125 112.164062 C 172.453125 111.367188 173.046875 110.710938 173.777344 110.183594 C 174.324219 109.769531 175.085938 109.421875 176.046875 109.148438 C 177 108.859375 178.023438 108.71875 179.113281 108.71875 C 180.769531 108.71875 182.210938 108.957031 183.460938 109.429688 C 184.699219 109.902344 185.621094 110.550781 186.21875 111.359375 C 186.804688 112.164062 187.21875 113.265625 187.441406 114.613281 L 183.964844 115.085938 C 183.808594 114 183.351562 113.15625 182.59375 112.558594 C 181.832031 111.945312 180.757812 111.648438 179.375 111.648438 C 177.738281 111.648438 176.570312 111.914062 175.871094 112.460938 C 175.179688 112.992188 174.824219 113.632812 174.824219 114.355469 C 174.824219 114.808594 174.964844 115.234375 175.257812 115.601562 C 175.550781 115.988281 176.007812 116.289062 176.625 116.546875 C 176.976562 116.679688 178.03125 116.984375 179.769531 117.460938 C 182.292969 118.132812 184.050781 118.683594 185.042969 119.109375 C 186.035156 119.535156 186.820312 120.164062 187.386719 120.980469 C 187.949219 121.796875 188.238281 122.820312 188.238281 124.023438 C 188.238281 125.21875 187.890625 126.335938 187.195312 127.382812 C 186.507812 128.421875 185.503906 129.234375 184.195312 129.804688 C 182.894531 130.386719 181.421875 130.671875 179.769531 130.671875 C 177.039062 130.671875 174.960938 130.109375 173.523438 128.964844 C 172.097656 127.835938 171.191406 126.160156 170.785156 123.9375 "/>
<path style=" stroke:none;fill-rule:nonzero;fill:rgb(7.058716%,23.921204%,48.234558%);fill-opacity:1;" d="M 193.285156 119.695312 C 193.285156 115.800781 194.371094 112.917969 196.535156 111.050781 C 198.34375 109.488281 200.539062 108.71875 203.140625 108.71875 C 206.027344 108.71875 208.386719 109.664062 210.226562 111.5625 C 212.054688 113.449219 212.976562 116.0625 212.976562 119.398438 C 212.976562 122.09375 212.5625 124.230469 211.753906 125.777344 C 210.945312 127.332031 209.765625 128.535156 208.214844 129.382812 C 206.667969 130.238281 204.976562 130.671875 203.140625 130.671875 C 200.203125 130.671875 197.828125 129.734375 196.011719 127.851562 C 194.199219 125.957031 193.285156 123.238281 193.285156 119.695312 Z M 196.949219 119.695312 C 196.949219 122.386719 197.546875 124.402344 198.710938 125.738281 C 199.882812 127.078125 201.355469 127.746094 203.140625 127.746094 C 204.910156 127.746094 206.378906 127.074219 207.550781 125.726562 C 208.726562 124.382812 209.320312 122.335938 209.320312 119.578125 C 209.320312 116.984375 208.722656 115.011719 207.539062 113.675781 C 206.363281 112.332031 204.894531 111.667969 203.140625 111.667969 C 201.355469 111.667969 199.882812 112.332031 198.710938 113.65625 C 197.546875 114.988281 196.949219 117.007812 196.949219 119.695312 "/>
<path style=" stroke:none;fill-rule:nonzero;fill:rgb(7.058716%,23.921204%,48.234558%);fill-opacity:1;" d="M 220.144531 130.195312 L 220.144531 111.957031 L 216.992188 111.957031 L 216.992188 109.195312 L 220.144531 109.195312 L 220.144531 106.960938 C 220.144531 105.546875 220.273438 104.492188 220.519531 103.808594 C 220.867188 102.890625 221.46875 102.144531 222.324219 101.570312 C 223.191406 100.996094 224.40625 100.707031 225.960938 100.707031 C 226.960938 100.707031 228.066406 100.832031 229.28125 101.0625 L 228.746094 104.164062 C 228.007812 104.039062 227.308594 103.96875 226.648438 103.96875 C 225.566406 103.96875 224.808594 104.207031 224.355469 104.660156 C 223.910156 105.117188 223.679688 105.984375 223.679688 107.253906 L 223.679688 109.195312 L 227.78125 109.195312 L 227.78125 111.957031 L 223.679688 111.957031 L 223.679688 130.195312 L 220.144531 130.195312 "/>
<path style=" stroke:none;fill-rule:nonzero;fill:rgb(7.058716%,23.921204%,48.234558%);fill-opacity:1;" d="M 240.46875 127.019531 L 240.980469 130.152344 C 239.984375 130.371094 239.085938 130.46875 238.292969 130.46875 C 237.003906 130.46875 235.996094 130.273438 235.289062 129.867188 C 234.570312 129.449219 234.070312 128.917969 233.785156 128.25 C 233.492188 127.585938 233.347656 126.183594 233.347656 124.050781 L 233.347656 111.957031 L 230.738281 111.957031 L 230.738281 109.195312 L 233.347656 109.195312 L 233.347656 103.988281 L 236.886719 101.851562 L 236.886719 109.195312 L 240.46875 109.195312 L 240.46875 111.957031 L 236.886719 111.957031 L 236.886719 124.246094 C 236.886719 125.253906 236.953125 125.910156 237.078125 126.203125 C 237.203125 126.496094 237.40625 126.726562 237.683594 126.898438 C 237.972656 127.066406 238.378906 127.148438 238.90625 127.148438 C 239.300781 127.148438 239.820312 127.109375 240.46875 127.019531 "/>
<path style=" stroke:none;fill-rule:nonzero;fill:rgb(7.058716%,23.921204%,48.234558%);fill-opacity:1;" d="M 249.976562 130.195312 L 243.542969 109.195312 L 247.226562 109.195312 L 250.570312 121.3125 L 251.816406 125.832031 C 251.867188 125.609375 252.230469 124.15625 252.902344 121.496094 L 256.238281 109.195312 L 259.90625 109.195312 L 263.039062 121.378906 L 264.097656 125.390625 L 265.300781 121.339844 L 268.902344 109.195312 L 272.363281 109.195312 L 265.796875 130.195312 L 262.097656 130.195312 L 258.753906 117.613281 L 257.945312 114.042969 L 253.695312 130.195312 L 249.976562 130.195312 "/>
<path style=" stroke:none;fill-rule:nonzero;fill:rgb(7.058716%,23.921204%,48.234558%);fill-opacity:1;" d="M 291.203125 127.605469 C 289.886719 128.722656 288.617188 129.523438 287.398438 129.988281 C 286.183594 130.445312 284.871094 130.671875 283.472656 130.671875 C 281.164062 130.671875 279.398438 130.109375 278.148438 128.980469 C 276.914062 127.851562 276.296875 126.40625 276.296875 124.660156 C 276.296875 123.632812 276.527344 122.691406 276.988281 121.84375 C 277.460938 120.988281 278.074219 120.316406 278.828125 119.800781 C 279.597656 119.285156 280.445312 118.886719 281.394531 118.621094 C 282.09375 118.445312 283.144531 118.265625 284.566406 118.089844 C 287.429688 117.753906 289.554688 117.34375 290.90625 116.863281 C 290.921875 116.378906 290.929688 116.074219 290.929688 115.941406 C 290.929688 114.480469 290.59375 113.460938 289.914062 112.875 C 289.007812 112.066406 287.65625 111.667969 285.863281 111.667969 C 284.1875 111.667969 282.949219 111.957031 282.152344 112.546875 C 281.355469 113.132812 280.769531 114.175781 280.390625 115.667969 L 276.90625 115.1875 C 277.210938 113.699219 277.75 112.492188 278.46875 111.582031 C 279.191406 110.660156 280.238281 109.957031 281.617188 109.457031 C 282.976562 108.964844 284.570312 108.71875 286.378906 108.71875 C 288.171875 108.71875 289.632812 108.917969 290.742188 109.351562 C 291.871094 109.769531 292.691406 110.300781 293.222656 110.941406 C 293.753906 111.582031 294.121094 112.386719 294.335938 113.359375 C 294.449219 113.972656 294.511719 115.066406 294.511719 116.648438 L 294.511719 121.398438 C 294.511719 124.707031 294.589844 126.800781 294.742188 127.675781 C 294.882812 128.554688 295.191406 129.398438 295.636719 130.195312 L 291.921875 130.195312 C 291.546875 129.457031 291.320312 128.601562 291.203125 127.605469 Z M 290.90625 119.652344 C 289.617188 120.183594 287.675781 120.628906 285.097656 121.003906 C 283.632812 121.214844 282.597656 121.453125 281.988281 121.714844 C 281.382812 121.972656 280.914062 122.363281 280.585938 122.863281 C 280.261719 123.382812 280.09375 123.941406 280.09375 124.566406 C 280.09375 125.503906 280.449219 126.296875 281.164062 126.9375 C 281.886719 127.570312 282.9375 127.886719 284.328125 127.886719 C 285.695312 127.886719 286.914062 127.585938 287.984375 126.984375 C 289.046875 126.390625 289.832031 125.566406 290.335938 124.523438 C 290.71875 123.71875 290.90625 122.527344 290.90625 120.964844 L 290.90625 119.652344 "/>
<path style=" stroke:none;fill-rule:nonzero;fill:rgb(7.058716%,23.921204%,48.234558%);fill-opacity:1;" d="M 302.132812 130.195312 L 302.132812 109.195312 L 305.34375 109.195312 L 305.34375 112.375 C 306.164062 110.886719 306.917969 109.902344 307.59375 109.429688 C 308.289062 108.957031 309.054688 108.71875 309.890625 108.71875 C 311.09375 108.71875 312.3125 109.097656 313.550781 109.863281 L 312.320312 113.175781 C 311.457031 112.65625 310.578125 112.394531 309.714844 112.394531 C 308.933594 112.394531 308.230469 112.625 307.621094 113.101562 C 306.996094 113.566406 306.554688 114.21875 306.292969 115.042969 C 305.898438 116.3125 305.703125 117.691406 305.703125 119.203125 L 305.703125 130.195312 L 302.132812 130.195312 "/>
<path style=" stroke:none;fill-rule:nonzero;fill:rgb(7.058716%,23.921204%,48.234558%);fill-opacity:1;" d="M 332.195312 123.425781 L 335.867188 123.890625 C 335.292969 126.042969 334.21875 127.707031 332.644531 128.890625 C 331.078125 130.078125 329.070312 130.671875 326.632812 130.671875 C 323.5625 130.671875 321.121094 129.722656 319.320312 127.835938 C 317.523438 125.945312 316.632812 123.285156 316.632812 119.871094 C 316.632812 116.332031 317.53125 113.59375 319.359375 111.648438 C 321.175781 109.695312 323.527344 108.71875 326.433594 108.71875 C 329.238281 108.71875 331.535156 109.664062 333.320312 111.582031 C 335.097656 113.503906 335.988281 116.1875 335.988281 119.652344 C 335.988281 119.859375 335.980469 120.183594 335.964844 120.605469 L 320.304688 120.605469 C 320.433594 122.914062 321.089844 124.675781 322.253906 125.910156 C 323.433594 127.132812 324.902344 127.746094 326.652344 127.746094 C 327.953125 127.746094 329.070312 127.398438 329.992188 126.714844 C 330.921875 126.03125 331.652344 124.929688 332.195312 123.425781 Z M 320.496094 117.679688 L 332.234375 117.679688 C 332.078125 115.910156 331.628906 114.585938 330.894531 113.699219 C 329.746094 112.332031 328.28125 111.648438 326.476562 111.648438 C 324.832031 111.648438 323.460938 112.191406 322.359375 113.296875 C 321.242188 114.382812 320.617188 115.835938 320.496094 117.679688 "/>
<path style=" stroke:none;fill-rule:nonzero;fill:rgb(7.058716%,23.921204%,48.234558%);fill-opacity:1;" d="M 369.515625 130.195312 L 369.515625 127.550781 C 368.183594 129.621094 366.234375 130.671875 363.644531 130.671875 C 361.972656 130.671875 360.4375 130.207031 359.027344 129.289062 C 357.621094 128.363281 356.539062 127.078125 355.761719 125.421875 C 354.992188 123.765625 354.605469 121.867188 354.605469 119.707031 C 354.605469 117.613281 354.9375 115.71875 355.648438 114.011719 C 356.34375 112.296875 357.40625 110.996094 358.800781 110.085938 C 360.199219 109.175781 361.757812 108.71875 363.484375 108.71875 C 364.753906 108.71875 365.878906 108.980469 366.871094 109.523438 C 367.855469 110.054688 368.660156 110.742188 369.273438 111.597656 L 369.273438 101.203125 L 372.820312 101.203125 L 372.820312 130.195312 Z M 358.261719 119.707031 C 358.261719 122.398438 358.832031 124.414062 359.964844 125.75 C 361.101562 127.078125 362.4375 127.746094 363.980469 127.746094 C 365.535156 127.746094 366.859375 127.109375 367.941406 125.835938 C 369.027344 124.566406 369.574219 122.625 369.574219 120.023438 C 369.574219 117.136719 369.027344 115.03125 367.917969 113.6875 C 366.804688 112.34375 365.441406 111.667969 363.820312 111.667969 C 362.25 111.667969 360.902344 112.308594 359.851562 113.601562 C 358.800781 114.902344 358.261719 116.929688 358.261719 119.707031 "/>
<path style=" stroke:none;fill-rule:nonzero;fill:rgb(7.058716%,23.921204%,48.234558%);fill-opacity:1;" d="M 394.949219 123.425781 L 398.625 123.890625 C 398.046875 126.042969 396.972656 127.707031 395.402344 128.890625 C 393.835938 130.078125 391.828125 130.671875 389.382812 130.671875 C 386.3125 130.671875 383.882812 129.722656 382.070312 127.835938 C 380.277344 125.945312 379.382812 123.285156 379.382812 119.871094 C 379.382812 116.332031 380.292969 113.59375 382.113281 111.648438 C 383.925781 109.695312 386.296875 108.71875 389.1875 108.71875 C 391.996094 108.71875 394.285156 109.664062 396.066406 111.582031 C 397.851562 113.503906 398.738281 116.1875 398.738281 119.652344 C 398.738281 119.859375 398.738281 120.183594 398.722656 120.605469 L 383.054688 120.605469 C 383.1875 122.914062 383.847656 124.675781 385.023438 125.910156 C 386.183594 127.132812 387.65625 127.746094 389.40625 127.746094 C 390.710938 127.746094 391.828125 127.398438 392.746094 126.714844 C 393.679688 126.03125 394.40625 124.929688 394.949219 123.425781 Z M 383.25 117.679688 L 394.980469 117.679688 C 394.828125 115.910156 394.378906 114.585938 393.640625 113.699219 C 392.503906 112.332031 391.035156 111.648438 389.230469 111.648438 C 387.59375 111.648438 386.222656 112.191406 385.109375 113.296875 C 383.992188 114.382812 383.375 115.835938 383.25 117.679688 "/>
<path style=" stroke:none;fill-rule:nonzero;fill:rgb(7.058716%,23.921204%,48.234558%);fill-opacity:1;" d="M 411.089844 130.195312 L 403.082031 109.195312 L 406.84375 109.195312 L 411.347656 121.777344 C 411.84375 123.125 412.285156 124.542969 412.703125 126.007812 C 413.007812 124.890625 413.453125 123.570312 414.023438 122.007812 L 418.691406 109.195312 L 422.347656 109.195312 L 414.402344 130.195312 L 411.089844 130.195312 "/>
<path style=" stroke:none;fill-rule:nonzero;fill:rgb(7.058716%,23.921204%,48.234558%);fill-opacity:1;" d="M 442.019531 123.425781 L 445.714844 123.890625 C 445.117188 126.042969 444.054688 127.707031 442.476562 128.890625 C 440.90625 130.078125 438.90625 130.671875 436.472656 130.671875 C 433.402344 130.671875 430.960938 129.722656 429.152344 127.835938 C 427.359375 125.945312 426.453125 123.285156 426.453125 119.871094 C 426.453125 116.332031 427.359375 113.59375 429.1875 111.648438 C 431.003906 109.695312 433.363281 108.71875 436.269531 108.71875 C 439.074219 108.71875 441.367188 109.664062 443.144531 111.582031 C 444.933594 113.503906 445.816406 116.1875 445.816406 119.652344 C 445.816406 119.859375 445.816406 120.183594 445.804688 120.605469 L 430.136719 120.605469 C 430.269531 122.914062 430.921875 124.675781 432.089844 125.910156 C 433.265625 127.132812 434.730469 127.746094 436.488281 127.746094 C 437.789062 127.746094 438.90625 127.398438 439.835938 126.714844 C 440.761719 126.03125 441.480469 124.929688 442.019531 123.425781 Z M 430.34375 117.679688 L 442.0625 117.679688 C 441.910156 115.910156 441.449219 114.585938 440.722656 113.699219 C 439.585938 112.332031 438.113281 111.648438 436.308594 111.648438 C 434.675781 111.648438 433.300781 112.191406 432.179688 113.296875 C 431.070312 114.382812 430.457031 115.835938 430.34375 117.679688 "/>
<path style=" stroke:none;fill-rule:nonzero;fill:rgb(7.058716%,23.921204%,48.234558%);fill-opacity:1;" d="M 452.238281 130.195312 L 455.800781 130.195312 L 455.800781 101.203125 L 452.238281 101.203125 Z M 452.238281 130.195312 "/>
<path style=" stroke:none;fill-rule:nonzero;fill:rgb(7.058716%,23.921204%,48.234558%);fill-opacity:1;" d="M 462.144531 119.695312 C 462.144531 115.800781 463.226562 112.917969 465.386719 111.050781 C 467.1875 109.488281 469.398438 108.71875 471.988281 108.71875 C 474.882812 108.71875 477.238281 109.664062 479.074219 111.5625 C 480.910156 113.449219 481.824219 116.0625 481.824219 119.398438 C 481.824219 122.09375 481.417969 124.230469 480.605469 125.777344 C 479.796875 127.332031 478.621094 128.535156 477.066406 129.382812 C 475.511719 130.238281 473.824219 130.671875 471.988281 130.671875 C 469.046875 130.671875 466.675781 129.734375 464.863281 127.851562 C 463.054688 125.957031 462.144531 123.238281 462.144531 119.695312 Z M 465.789062 119.695312 C 465.789062 122.386719 466.394531 124.402344 467.558594 125.738281 C 468.734375 127.078125 470.21875 127.746094 471.988281 127.746094 C 473.757812 127.746094 475.234375 127.074219 476.410156 125.726562 C 477.570312 124.382812 478.15625 122.335938 478.15625 119.578125 C 478.15625 116.984375 477.570312 115.011719 476.394531 113.675781 C 475.210938 112.332031 473.757812 111.667969 471.988281 111.667969 C 470.21875 111.667969 468.734375 112.332031 467.558594 113.65625 C 466.394531 114.988281 465.789062 117.007812 465.789062 119.695312 "/>
<path style=" stroke:none;fill-rule:nonzero;fill:rgb(7.058716%,23.921204%,48.234558%);fill-opacity:1;" d="M 488.136719 138.25 L 488.136719 109.195312 L 491.394531 109.195312 L 491.394531 111.917969 C 492.15625 110.855469 493.023438 110.054688 493.984375 109.523438 C 494.941406 108.980469 496.113281 108.71875 497.484375 108.71875 C 499.269531 108.71875 500.859375 109.183594 502.222656 110.101562 C 503.59375 111.019531 504.636719 112.320312 505.328125 114.011719 C 506.039062 115.6875 506.382812 117.539062 506.382812 119.535156 C 506.382812 121.6875 506.003906 123.621094 505.222656 125.34375 C 504.445312 127.0625 503.328125 128.386719 501.859375 129.296875 C 500.394531 130.21875 498.835938 130.671875 497.222656 130.671875 C 496.03125 130.671875 494.976562 130.425781 494.03125 129.917969 C 493.078125 129.414062 492.3125 128.785156 491.695312 128.015625 L 491.695312 138.25 Z M 491.375 119.816406 C 491.375 122.515625 491.917969 124.511719 493.011719 125.804688 C 494.101562 127.105469 495.425781 127.746094 496.980469 127.746094 C 498.570312 127.746094 499.917969 127.078125 501.054688 125.738281 C 502.179688 124.402344 502.746094 122.328125 502.746094 119.515625 C 502.746094 116.839844 502.1875 114.835938 501.097656 113.503906 C 499.992188 112.167969 498.675781 111.507812 497.144531 111.507812 C 495.636719 111.507812 494.285156 112.21875 493.121094 113.632812 C 491.953125 115.042969 491.375 117.109375 491.375 119.816406 "/>
<path style=" stroke:none;fill-rule:nonzero;fill:rgb(7.058716%,23.921204%,48.234558%);fill-opacity:1;" d="M 512.8125 130.195312 L 512.8125 109.195312 L 516.007812 109.195312 L 516.007812 112.148438 C 516.664062 111.117188 517.542969 110.28125 518.628906 109.652344 C 519.730469 109.035156 520.976562 108.71875 522.382812 108.71875 C 523.925781 108.71875 525.214844 109.039062 526.199219 109.691406 C 527.195312 110.335938 527.898438 111.246094 528.3125 112.394531 C 529.976562 109.945312 532.121094 108.71875 534.796875 108.71875 C 536.878906 108.71875 538.480469 109.292969 539.605469 110.445312 C 540.722656 111.597656 541.28125 113.382812 541.28125 115.78125 L 541.28125 130.195312 L 537.742188 130.195312 L 537.742188 116.964844 C 537.742188 115.542969 537.632812 114.515625 537.398438 113.894531 C 537.164062 113.265625 536.753906 112.753906 536.140625 112.375 C 535.539062 111.996094 534.824219 111.800781 534.011719 111.800781 C 532.527344 111.800781 531.304688 112.296875 530.328125 113.273438 C 529.355469 114.261719 528.867188 115.828125 528.867188 118 L 528.867188 130.195312 L 525.308594 130.195312 L 525.308594 116.546875 C 525.308594 114.957031 525.011719 113.773438 524.425781 112.992188 C 523.851562 112.199219 522.902344 111.800781 521.578125 111.800781 C 520.578125 111.800781 519.652344 112.066406 518.800781 112.589844 C 517.949219 113.121094 517.335938 113.894531 516.957031 114.90625 C 516.578125 115.921875 516.382812 117.386719 516.382812 119.292969 L 516.382812 130.195312 L 512.8125 130.195312 "/>
<path style=" stroke:none;fill-rule:nonzero;fill:rgb(7.058716%,23.921204%,48.234558%);fill-opacity:1;" d="M 563.085938 123.425781 L 566.777344 123.890625 C 566.191406 126.042969 565.117188 127.707031 563.535156 128.890625 C 561.972656 130.078125 559.976562 130.671875 557.53125 130.671875 C 554.46875 130.671875 552.027344 129.722656 550.230469 127.835938 C 548.414062 125.945312 547.523438 123.285156 547.523438 119.871094 C 547.523438 116.332031 548.4375 113.59375 550.253906 111.648438 C 552.074219 109.695312 554.433594 108.71875 557.335938 108.71875 C 560.140625 108.71875 562.441406 109.664062 564.226562 111.582031 C 566.003906 113.503906 566.898438 116.1875 566.898438 119.652344 C 566.898438 119.859375 566.882812 120.183594 566.878906 120.605469 L 551.207031 120.605469 C 551.339844 122.914062 551.988281 124.675781 553.171875 125.910156 C 554.34375 127.132812 555.796875 127.746094 557.558594 127.746094 C 558.84375 127.746094 559.976562 127.398438 560.890625 126.714844 C 561.820312 126.03125 562.542969 124.929688 563.085938 123.425781 Z M 551.398438 117.679688 L 563.128906 117.679688 C 562.972656 115.910156 562.527344 114.585938 561.785156 113.699219 C 560.65625 112.332031 559.175781 111.648438 557.378906 111.648438 C 555.742188 111.648438 554.363281 112.191406 553.253906 113.296875 C 552.136719 114.382812 551.523438 115.835938 551.398438 117.679688 "/>
<path style=" stroke:none;fill-rule:nonzero;fill:rgb(7.058716%,23.921204%,48.234558%);fill-opacity:1;" d="M 573.394531 130.195312 L 573.394531 109.195312 L 576.585938 109.195312 L 576.585938 112.191406 C 578.136719 109.867188 580.371094 108.71875 583.28125 108.71875 C 584.539062 108.71875 585.707031 108.945312 586.773438 109.398438 C 587.828125 109.859375 588.621094 110.453125 589.144531 111.191406 C 589.679688 111.925781 590.046875 112.800781 590.257812 113.816406 C 590.394531 114.480469 590.460938 115.628906 590.460938 117.277344 L 590.460938 130.195312 L 586.890625 130.195312 L 586.890625 117.421875 C 586.890625 115.976562 586.765625 114.878906 586.488281 114.175781 C 586.207031 113.449219 585.71875 112.875 585.015625 112.449219 C 584.308594 112.027344 583.472656 111.800781 582.527344 111.800781 C 581.003906 111.800781 579.691406 112.28125 578.601562 113.242188 C 577.496094 114.207031 576.949219 116.039062 576.949219 118.71875 L 576.949219 130.195312 L 573.394531 130.195312 "/>
<path style=" stroke:none;fill-rule:nonzero;fill:rgb(7.058716%,23.921204%,48.234558%);fill-opacity:1;" d="M 605.839844 127.019531 L 606.351562 130.152344 C 605.351562 130.371094 604.445312 130.46875 603.664062 130.46875 C 602.367188 130.46875 601.371094 130.273438 600.65625 129.867188 C 599.945312 129.449219 599.445312 128.917969 599.152344 128.25 C 598.863281 127.585938 598.726562 126.183594 598.726562 124.050781 L 598.726562 111.957031 L 596.109375 111.957031 L 596.109375 109.195312 L 598.726562 109.195312 L 598.726562 103.988281 L 602.261719 101.851562 L 602.261719 109.195312 L 605.839844 109.195312 L 605.839844 111.957031 L 602.261719 111.957031 L 602.261719 124.246094 C 602.261719 125.253906 602.320312 125.910156 602.445312 126.203125 C 602.574219 126.496094 602.769531 126.726562 603.058594 126.898438 C 603.34375 127.066406 603.753906 127.148438 604.28125 127.148438 C 604.667969 127.148438 605.1875 127.109375 605.839844 127.019531 "/>
</g>
</svg>
